# xmcd
#
# Track frame offsets:
#	150
#	14397
#	28907
#	42552
#	56700
#	70277
#	85742
#	99237
#	113100
#	127657
#	141567
#	156490
#	171547
#	185097
#	199342
#	215022
#	229500
#	244090
#	258067
#	274097
#	288655
#	303207
#	317665
#	332997
#
# Disc length: 4622 seconds
#
# Revision: 0
# Processed by: cddbd v1.5.2PL0 Copyright (c) Steve Scherf et al.
# Submitted via: audiograbber 1.83.01
#
DISCID=6e120c18
DTITLE=Various Artist - Old Time Music from West Virginia (1927-1929)
DYEAR=1997
DGENRE=
TTITLE0=Williamson Brothers and Curry - Cumberland Gap
TTITLE1=Williamson Brothers and Curry - Warfield
TTITLE2=Williamson Brothers and Curry - The Fun's All Over
TTITLE3=Williamson Brothers and Curry - Lonesome Road Blues
TTITLE4=Williamson Brothers and Curry - The Old Arm Chair
TTITLE5=Williamson Brothers and Curry - Gonna Die with My Hammer in My Hand
TTITLE6=Dick Justice - Old Black Dog
TTITLE7=Dick Justice - Little Lulie
TTITLE8=Dick Justice - Brown Skin Blues
TTITLE9=Dick Justice - Cocaine
TTITLE10=Jarvis and Justice - Guian Valley Waltz
TTITLE11=Jarvis and Justice - Poor Girl's Waltz
TTITLE12=Jarvis and Justice - Poca River Blues
TTITLE13=Jarvis and Justice - Muskrat Rag
TTITLE14=Dick Justice - Henry Lee
TTITLE15=Dick Justice - One Cold December Day
TTITLE16=Frank Hutchison - The Chevrolet Six
TTITLE17=Frank Hutchison - Cumberland Gap
TTITLE18=Frank Hutchison - The Deal
TTITLE19=Frank Hutchison - Railroad Bill
TTITLE20=Frank Hutchison - Johnny and Jane - Part 1
TTITLE21=Frank Hutchison - Johnny and Jane - Part 2
TTITLE22=Frank Hutchison - Cannon Ball Blues
TTITLE23=Frank Hutchison - K. C. Blues
EXTD=DOCD-8004
EXTT0=
EXTT1=
EXTT2=
EXTT3=
EXTT4=
EXTT5=
EXTT6=
EXTT7=
EXTT8=
EXTT9=
EXTT10=
EXTT11=
EXTT12=
EXTT13=
EXTT14=
EXTT15=
EXTT16=
EXTT17=
EXTT18=
EXTT19=
EXTT20=
EXTT21=
EXTT22=
EXTT23=
PLAYORDER=
